# This file uses centimeters as units for non-parametric coordinates.

mtllib tail2.mtl
g default
v -0.524691 2.363402 -1.582954
v -0.415271 1.828945 -1.625651
v -0.383158 1.871522 -1.094856
v -0.615653 2.857564 -1.629280
v -0.613106 2.994692 -0.728484
v -0.801032 3.912613 -1.848734
v -0.660692 3.077552 -2.095043
v -0.556873 2.869598 -1.629279
v -0.615653 2.857564 -1.629280
v -0.601911 3.089585 -2.095043
v -0.766781 3.496024 -3.028581
v -0.668813 3.516081 -3.028581
v -0.336897 1.844991 -1.625651
v -0.446316 2.379447 -1.582954
v -0.383158 1.871522 -1.094856
v -0.556873 2.869598 -1.629279
v -0.478243 2.335963 -2.273942
v -0.310677 1.318058 -1.459744
v -0.362848 1.572885 -1.535271
v -0.307384 1.501405 -2.035525
v -0.253561 1.438767 -1.090219
v -0.274733 1.242206 -1.241709
v -0.284619 1.588900 -1.535272
v -0.336897 1.844991 -1.625651
v -0.383158 1.871522 -1.094856
v -0.307384 1.501405 -2.035525
v -0.232302 1.334104 -1.459744
v -0.236519 0.955838 -0.734714
v -0.221852 1.083630 -1.324977
v -0.185253 0.904860 -0.754867
v -0.211432 1.032732 -0.717014
v -0.221852 1.083630 -1.324977
v -0.158145 0.971883 -0.734714
v -0.185253 0.904860 -0.754867
v -0.235545 1.250229 -1.241709
v -0.660692 3.077552 -2.095043
v -0.766781 3.496024 -3.028581
v -0.984263 4.807600 -3.006118
v -0.524691 2.363402 -1.582954
v -0.446316 2.379447 -1.582954
v -0.613106 2.994692 -0.728484
v -0.383158 1.871522 -1.094856
v -0.235545 1.250229 -1.241709
v -0.274733 1.242206 -1.241709
v -0.211432 1.032732 -0.717014
v -0.253561 1.438767 -1.090219
v -0.613106 2.994692 -0.728484
v -0.601911 3.089585 -2.095043
v -0.284619 1.588900 -1.535272
v -0.362848 1.572885 -1.535271
v -0.253561 1.438767 -1.090219
v -0.383158 1.871522 -1.094856
v -0.415271 1.828945 -1.625651
v -0.383158 1.871522 -1.094856
v -0.253561 1.438767 -1.090219
v -0.801032 3.912613 -1.848734
v -0.668813 3.516081 -3.028581
v -0.236085 1.153148 -1.549573
v -0.984263 4.807600 -3.006118
v -0.668813 3.516081 -3.028581
v -0.766781 3.496024 -3.028581
v -0.615653 2.857564 -1.629280
v -0.556873 2.869598 -1.629279
v -0.478243 2.335963 -2.273942
v -0.310677 1.318058 -1.459744
v -0.232302 1.334104 -1.459744
v -0.236085 1.153148 -1.549573
v -0.478243 2.335963 -2.273942
v -0.336897 1.844991 -1.625651
v -0.415271 1.828945 -1.625651
v -0.310677 1.318058 -1.459744
v -0.307384 1.501405 -2.035525
v -0.232302 1.334104 -1.459744
v -0.415271 1.828945 -1.625651
v -0.336897 1.844991 -1.625651
v -0.307384 1.501405 -2.035525
v -0.211432 1.032732 -0.717014
v -0.984263 4.807600 -3.006118
v -0.478243 2.335963 -2.273942
v -0.236085 1.153148 -1.549573
vt 0.210968 0.450897
vt 0.181122 0.463257
vt 0.193665 0.502960
vt 0.236725 0.432953
vt 0.261902 0.498169
vt 0.289185 0.385437
vt 0.239288 0.390808
vt 0.236725 0.432953
vt 0.236725 0.432953
vt 0.239288 0.390808
vt 0.243439 0.306885
vt 0.243439 0.306885
vt 0.181122 0.463257
vt 0.210968 0.450897
vt 0.193665 0.502960
vt 0.236725 0.432953
vt 0.195160 0.398987
vt 0.046570 0.455688
vt 0.091309 0.439453
vt 0.031677 0.355743
vt 0.080200 0.476715
vt 0.059845 0.487610
vt 0.091309 0.439453
vt 0.129730 0.374664
vt 0.163727 0.465210
vt 0.031677 0.355743
vt 0.046570 0.455688
vt 0.046204 0.540405
vt 0.014374 0.496948
vt 0.031921 0.542145
vt 0.060242 0.537994
vt 0.014374 0.496948
vt 0.046204 0.540405
vt 0.031921 0.542145
vt 0.059845 0.487610
vt 0.239288 0.390808
vt 0.243439 0.306885
vt 0.314453 0.270538
vt 0.210968 0.450897
vt 0.210968 0.450897
vt 0.261902 0.498169
vt 0.193665 0.502960
vt 0.059845 0.487610
vt 0.059845 0.487610
vt 0.060242 0.537994
vt 0.080200 0.476715
vt 0.261902 0.498169
vt 0.239288 0.390808
vt 0.091309 0.439453
vt 0.091309 0.439453
vt 0.080200 0.476715
vt 0.163727 0.465210
vt 0.129730 0.374664
vt 0.163727 0.465210
vt 0.080200 0.476715
vt 0.289185 0.385437
vt 0.243439 0.306885
vt 0.004944 0.465546
vt 0.314453 0.270538
vt 0.243439 0.306885
vt 0.243439 0.306885
vt 0.236725 0.432953
vt 0.236725 0.432953
vt 0.195160 0.398987
vt 0.046570 0.455688
vt 0.046570 0.455688
vt 0.004944 0.465546
vt 0.195160 0.398987
vt 0.181122 0.463257
vt 0.181122 0.463257
vt 0.046570 0.455688
vt 0.031677 0.355743
vt 0.046570 0.455688
vt 0.129730 0.374664
vt 0.129730 0.374664
vt 0.031677 0.355743
vt 0.060242 0.537994
vt 0.314453 0.270538
vt 0.195160 0.398987
vt 0.004944 0.465546
vn -0.975678 -0.205786 0.075535
vn -0.975678 -0.205786 0.075535
vn -0.975678 -0.205786 0.075535
vn -0.981266 -0.192013 0.015741
vn -0.983793 -0.179302 -0.001389
vn -0.979806 -0.199912 0.003845
vn -0.985383 -0.168134 0.027423
vn -0.983793 -0.179302 -0.001389
vn -0.981266 -0.192013 0.015741
vn -0.985383 -0.168134 0.027423
vn -0.985383 -0.168134 0.027423
vn -0.983793 -0.179302 -0.001389
vn 0.181380 -0.885945 -0.426852
vn 0.181380 -0.885945 -0.426852
vn 0.181380 -0.885945 -0.426852
vn 0.181380 -0.885945 -0.426852
vn 0.181380 -0.885945 -0.426852
vn 0.181380 -0.885945 -0.426852
vn 0.181380 -0.885945 -0.426852
vn 0.181380 -0.885945 -0.426852
vn 0.181380 -0.885945 -0.426852
vn 0.181380 -0.885945 -0.426852
vn 0.181380 -0.885945 -0.426852
vn 0.181380 -0.885945 -0.426852
vn 0.979586 0.200987 0.003906
vn 0.977775 0.209063 0.015741
vn 0.975014 0.209272 0.074523
vn 0.979586 0.200987 0.003906
vn 0.975104 0.221744 -0.001389
vn 0.977775 0.209063 0.015741
vn 0.976103 0.209349 -0.058280
vn 0.975104 0.221744 -0.001389
vn 0.979586 0.200987 0.003906
vn -0.972775 -0.229549 0.031870
vn -0.983056 -0.181388 0.026428
vn -0.971739 -0.223554 -0.075806
vn -0.972775 -0.229549 0.031870
vn -0.978176 -0.098012 0.183206
vn -0.983056 -0.181388 0.026428
vn -0.989182 -0.123756 0.078757
vn -0.978176 -0.098012 0.183206
vn -0.972775 -0.229549 0.031870
vn 0.980614 0.194968 -0.019592
vn 0.979586 0.200987 0.003906
vn 0.975014 0.209272 0.074523
vn 0.980614 0.194968 -0.019592
vn 0.981411 0.176440 -0.075503
vn 0.979586 0.200987 0.003906
vn 0.992697 0.119986 -0.012528
vn 0.981411 0.176440 -0.075503
vn 0.980614 0.194968 -0.019592
vn -0.967575 -0.252348 -0.010890
vn -0.891699 -0.443967 -0.088122
vn -0.727111 -0.667022 -0.162456
vn -0.967575 -0.252348 -0.010890
vn -0.989182 -0.123756 0.078757
vn -0.891699 -0.443967 -0.088122
vn -0.941742 0.257448 0.216430
vn -0.989182 -0.123756 0.078757
vn -0.967575 -0.252348 -0.010890
vn 0.994430 -0.057819 -0.088122
vn 0.988897 0.148202 -0.010890
vn 0.930742 -0.327608 -0.162456
vn 0.994430 -0.057819 -0.088122
vn 0.975623 0.215492 0.041512
vn 0.988897 0.148202 -0.010890
vn 0.992697 0.119986 -0.012528
vn 0.975623 0.215492 0.041512
vn 0.994430 -0.057819 -0.088122
vn -0.985383 -0.168134 0.027423
vn -0.985383 -0.168134 0.027423
vn -0.983793 -0.179302 -0.001389
vn -0.985383 -0.168134 0.027423
vn -0.985383 -0.168134 0.027423
vn -0.985383 -0.168134 0.027423
vn -0.985383 -0.168134 0.027423
vn -0.985383 -0.168134 0.027423
vn -0.985383 -0.168134 0.027423
vn 0.016782 -0.081971 0.996493
vn 0.016782 -0.081971 0.996493
vn 0.160880 -0.785814 0.597172
vn 0.016782 -0.081971 0.996493
vn -0.138637 0.677170 0.722649
vn 0.016782 -0.081971 0.996493
vn -0.049596 0.242250 0.968945
vn -0.049596 0.242250 0.968945
vn -0.185229 0.904745 0.383572
vn -0.049596 0.242250 0.968945
vn 0.125716 -0.614054 0.779187
vn -0.049596 0.242250 0.968945
vn 0.975104 0.221744 -0.001389
vn 0.973366 0.227661 0.027021
vn 0.977775 0.209063 0.015741
vn 0.975104 0.221744 -0.001389
vn 0.973366 0.227661 0.027021
vn 0.973366 0.227661 0.027021
vn -0.026099 0.127481 0.991498
vn -0.026099 0.127481 0.991498
vn -0.189633 0.926255 0.325716
vn -0.026099 0.127481 0.991498
vn 0.166354 -0.812548 0.558652
vn -0.026099 0.127481 0.991498
vn -0.979806 -0.199912 0.003845
vn -0.983056 -0.181388 0.026428
vn -0.978867 -0.190437 0.074522
vn -0.979806 -0.199912 0.003845
vn -0.971739 -0.223554 -0.075806
vn -0.983056 -0.181388 0.026428
vn 0.990972 0.132654 0.019443
vn 0.992697 0.119986 -0.012528
vn 0.980614 0.194968 -0.019592
vn 0.990972 0.132654 0.019443
vn 0.975623 0.215492 0.041512
vn 0.992697 0.119986 -0.012528
vn 0.973366 0.227661 0.027021
vn 0.973366 0.227661 0.027021
vn 0.973366 0.227661 0.027021
vn 0.973366 0.227661 0.027021
vn 0.973366 0.227661 0.027021
vn 0.973366 0.227661 0.027021
vn -0.891699 -0.443967 -0.088122
vn -0.972775 -0.229549 0.031870
vn -0.932599 -0.360688 -0.012765
vn -0.891699 -0.443967 -0.088122
vn -0.989182 -0.123756 0.078757
vn -0.972775 -0.229549 0.031870
vn -0.003392 0.016566 -0.999857
vn -0.003392 0.016566 -0.999857
vn -0.003392 0.016566 -0.999857
vn -0.153926 0.751848 -0.641118
vn -0.153926 0.751848 -0.641118
vn -0.153926 0.751848 -0.641118
vn -0.090966 0.444321 -0.891237
vn -0.090966 0.444321 -0.891237
vn -0.090966 0.444321 -0.891237
vn 0.157719 -0.770371 -0.617781
vn 0.157714 -0.770350 -0.617808
vn 0.157714 -0.770350 -0.617808
vn 0.191531 -0.935527 -0.296826
vn 0.191532 -0.935532 -0.296808
vn 0.191531 -0.935527 -0.296826
vn -0.153906 0.751747 -0.641240
vn -0.153906 0.751747 -0.641240
vn -0.153906 0.751747 -0.641240
vn 0.988897 0.148202 -0.010890
vn 0.975623 0.215492 0.041512
vn 0.764798 0.606829 0.216430
vn 0.973366 0.227661 0.027021
vn 0.973366 0.227661 0.027021
vn 0.973366 0.227661 0.027021
vn -0.983793 -0.179302 -0.001389
vn -0.979840 -0.191093 -0.058280
vn -0.979806 -0.199912 0.003845
vn 0.999312 0.034833 -0.012765
vn 0.992697 0.119986 -0.012528
vn 0.994430 -0.057819 -0.088122
s off
g Pikachu2:polygon4
usemtl Pikachu2:mat9
f 1/1/1 2/2/2 3/3/3
f 1/1/4 4/4/5 2/2/6
f 5/5/7 4/4/8 1/1/9
f 5/5/10 6/6/11 4/4/12
f 7/7/13 8/8/14 9/9/15
f 7/7/16 10/10/17 8/8/18
f 11/11/19 10/10/20 7/7/21
f 11/11/22 12/12/23 10/10/24
f 13/13/25 14/14/26 15/15/27
f 13/13/28 16/16/29 14/14/30
f 17/17/31 16/16/32 13/13/33
f 18/18/34 19/19/35 20/20/36
f 18/18/37 21/21/38 19/19/39
f 22/22/40 21/21/41 18/18/42
f 23/23/43 24/24/44 25/25/45
f 23/23/46 26/26/47 24/24/48
f 27/27/49 26/26/50 23/23/51
f 28/28/52 29/29/53 30/30/54
f 28/28/55 22/22/56 29/29/57
f 31/31/58 22/22/59 28/28/60
f 32/32/61 33/33/62 34/34/63
f 32/32/64 35/35/65 33/33/66
f 27/27/67 35/35/68 32/32/69
f 6/6/70 36/36/71 4/4/72
f 6/6/73 37/37/74 36/36/75
f 38/38/76 37/37/77 6/6/78
f 39/39/79 40/40/80 41/41/81
f 39/39/82 42/42/83 40/40/84
f 43/43/85 44/44/86 45/45/87
f 43/43/88 46/46/89 44/44/90
f 16/16/91 47/47/92 14/14/93
f 16/16/94 48/48/95 47/47/96
f 49/49/97 50/50/98 51/51/99
f 49/49/100 52/52/101 50/50/102
f 53/53/103 19/19/104 54/54/105
f 53/53/106 20/20/107 19/19/108
f 55/55/109 27/27/110 23/23/111
f 55/55/112 35/35/113 27/27/114
f 48/48/115 56/56/116 47/47/117
f 48/48/118 57/57/119 56/56/120
f 29/29/121 18/18/122 58/58/123
f 29/29/124 22/22/125 18/18/126
f 59/59/127 60/60/128 61/61/129
f 62/62/130 63/63/131 64/64/132
f 65/65/133 66/66/134 67/67/135
f 68/68/136 69/69/137 70/70/138
f 71/71/139 72/72/140 73/73/141
f 74/74/142 75/75/143 76/76/144
f 33/33/145 35/35/146 77/77/147
f 57/57/148 78/78/149 56/56/150
f 4/4/151 79/79/152 2/2/153
f 80/80/154 27/27/155 32/32/156
