# This file uses centimeters as units for non-parametric coordinates.

mtllib people_deco.mtl
g default
v -0.577500 9.355000 1.027000
v -0.962500 9.422000 0.723000
v -1.047500 9.044000 0.893000
v -0.546500 8.983000 1.140000
v -1.088500 9.437000 0.217000
v -1.218500 9.047000 0.266000
v -0.325500 8.874000 -0.848000
v -0.799500 8.943001 -0.715000
v -0.661500 9.355000 -0.587000
v 0.000500 9.252999 -0.683000
v 0.000500 8.946000 1.210000
v 0.000500 9.287999 1.096000
v -1.038500 9.406000 -0.224000
v -1.171500 9.019000 -0.304000
v 0.545500 8.974999 1.143000
v 0.577500 9.355000 1.027000
v 0.000500 8.858000 -0.849000
v 1.048500 9.042000 0.894000
v 0.962500 9.422000 0.723000
v 1.234500 9.040000 0.267000
v 1.088500 9.437000 0.217000
v 1.198500 9.010000 -0.305000
v 1.038500 9.406000 -0.224000
v 0.797500 8.947000 -0.714000
v 0.662500 9.355000 -0.587000
v 0.319500 8.884000 -0.844000
v 0.000500 9.757001 1.066000
v -0.618500 9.790000 0.967000
v -0.986500 9.813001 0.660000
v -1.138500 9.809000 0.243000
v -1.065500 9.766000 -0.200000
v -0.661500 9.680000 -0.628000
v 0.000500 9.623000 -0.707000
v 0.662500 9.677000 -0.628000
v 1.071500 9.789001 -0.195000
v 1.136500 9.829000 0.245000
v 0.986500 9.822000 0.658000
v 0.619500 9.798000 0.965000
v 0.000500 9.624999 0.195000
v 0.002500 8.971999 0.081000
v -1.060500 8.547000 1.184000
v -1.124500 8.615000 1.092000
v -1.544500 8.126000 0.997000
v -1.528500 8.038000 1.072000
v -1.063500 8.546000 0.999000
v -1.442500 8.094999 0.921000
v -0.999500 8.478001 1.090000
v -1.419500 7.990000 0.995000
v -1.960500 7.749000 0.388000
v -1.962500 7.622000 0.417000
v -1.833500 7.740000 0.358000
v -1.835500 7.613000 0.387000
v -1.911500 7.835001 -0.214000
v -1.914500 7.708000 -0.242000
v -1.783500 7.827000 -0.187000
v -1.786500 7.699000 -0.216000
v -1.478500 8.233000 -0.676000
v -1.457500 8.128000 -0.751000
v -1.374500 8.202001 -0.602000
v -1.353500 8.097000 -0.678000
v -0.928500 8.705999 -0.781000
v -0.859500 8.645000 -0.871000
v -0.878500 8.625000 -0.695000
v -0.802500 8.571000 -0.782000
v -0.263500 9.155000 -0.591000
v -0.162500 9.123000 -0.668000
v -0.239500 9.049999 -0.517000
v -0.138500 9.018000 -0.593000
v -0.122500 9.299000 1.000000
v -0.226500 9.330000 0.927000
v -0.205500 9.224999 0.852000
v -0.101500 9.194000 0.925000
v -1.860500 7.520000 0.208000
v -1.773500 7.305000 0.364000
v -1.548500 7.647000 0.372000
v -1.777500 7.647000 0.211000
v -2.008500 7.526999 0.175000
v -2.172500 7.324000 0.274000
v -2.072500 7.661000 0.144000
v -2.347500 7.684999 0.192000
v -1.989500 7.787000 0.147000
v -2.122500 8.028000 0.200000
v -1.842500 7.780000 0.180000
v -1.723500 8.009000 0.290000
v -1.727500 7.280000 0.155000
v -1.503500 7.622000 0.163000
v -2.126500 7.299000 0.065000
v -2.301500 7.659999 -0.016000
v -2.076500 8.002000 -0.009000
v -1.677500 7.983000 0.081000
v -3.614500 8.956000 -0.067000
v -3.222500 8.746000 -0.661000
v -3.322500 8.396000 -0.400000
v -3.536500 8.636000 0.094000
v -2.898500 8.228000 -0.449000
v -2.645500 8.431000 -0.691000
v -2.323500 8.324000 -0.002000
v -2.666500 8.168000 0.147000
v -3.337500 8.829000 0.602000
v -3.377500 8.566000 0.522000
v -2.776500 8.445000 0.641000
v -3.257500 7.544001 -0.169000
v -2.958500 7.629000 0.454000
v -2.816500 7.295000 0.595000
v -3.385500 7.217000 -0.292000
v -3.824500 7.377000 -0.150000
v -3.637500 7.720000 -0.149000
v -3.827500 7.961000 0.496000
v -4.208500 7.853001 0.733000
v -3.695500 8.424000 0.214000
v -3.406500 8.191999 -0.333000
v -2.709500 7.991000 0.260000
v -2.997500 8.033000 0.704000
v -3.451500 8.191000 0.583000
v -3.291500 7.923000 0.848000
v -3.087500 7.794000 0.894000
v -3.214500 8.128000 0.687000
v -3.638500 7.761000 1.007000
v -3.589500 7.965001 0.776000
v -3.087500 7.589000 1.093000
v -3.127500 8.332000 0.654000
v -3.747500 8.190001 0.395000
v -3.519500 7.923000 -0.282000
v -3.151500 7.764000 -0.330000
v -2.862500 7.780000 0.362000
v -3.049500 7.978000 -0.360000
v -3.959500 8.252000 -0.018000
v -3.417500 8.113000 0.163000
v -3.524500 8.676001 -0.041000
v -4.101500 8.789000 -0.221000
v 3.614500 8.956000 -0.067000
v 3.222500 8.746000 -0.661000
v 3.322500 8.396000 -0.400000
v 3.536500 8.636000 0.094000
v 2.898500 8.228000 -0.449000
v 2.645500 8.431000 -0.691000
v 2.323500 8.324000 -0.002000
v 2.666500 8.168000 0.147000
v 3.337500 8.829000 0.602000
v 3.377500 8.566000 0.522000
v 2.776500 8.445000 0.641000
v 3.257500 7.544001 -0.169000
v 2.958500 7.629000 0.454000
v 2.816500 7.295000 0.595000
v 3.385500 7.217000 -0.292000
v 3.824500 7.377000 -0.150000
v 3.637500 7.720000 -0.149000
v 3.827500 7.961000 0.496000
v 4.208500 7.853001 0.733000
v 3.695500 8.424000 0.214000
v 3.406500 8.191999 -0.333000
v 2.709500 7.991000 0.260000
v 2.997500 8.033000 0.704000
v 3.451500 8.191000 0.583000
v 3.291500 7.923000 0.848000
v 3.087500 7.794000 0.894000
v 3.214500 8.128000 0.687000
v 3.638500 7.761000 1.007000
v 3.589500 7.965001 0.776000
v 3.087500 7.589000 1.093000
v 3.127500 8.332000 0.654000
v 3.747500 8.190001 0.395000
v 3.519500 7.923000 -0.282000
v 3.151500 7.764000 -0.330000
v 2.862500 7.780000 0.362000
v 3.049500 7.978000 -0.360000
v 3.959500 8.252000 -0.018000
v 3.417500 8.113000 0.163000
v 3.524500 8.676001 -0.041000
v 4.101500 8.789000 -0.221000
vt 0.212700 0.134200
vt 0.257000 0.134600
vt 0.257400 0.088500
vt 0.212600 0.088100
vt 0.306800 0.135300
vt 0.306600 0.089600
vt 0.425800 0.087700
vt 0.394600 0.087900
vt 0.394800 0.134000
vt 0.453000 0.133400
vt 0.158700 0.088100
vt 0.158500 0.134200
vt 0.349400 0.134600
vt 0.349000 0.088700
vt 0.104300 0.088100
vt 0.104200 0.134300
vt 0.452800 0.087600
vt 0.059900 0.088500
vt 0.060000 0.134700
vt 0.016000 0.089500
vt 0.016300 0.135300
vt 0.557700 0.088600
vt 0.557400 0.134600
vt 0.598200 0.135100
vt 0.598500 0.089500
vt 0.511300 0.087900
vt 0.511200 0.134000
vt 0.476800 0.087600
vt 0.158200 0.177900
vt 0.213200 0.177600
vt 0.257200 0.177400
vt 0.306200 0.177400
vt 0.349300 0.177100
vt 0.394800 0.176700
vt 0.453200 0.176500
vt 0.511200 0.176800
vt 0.557700 0.177200
vt 0.598400 0.177200
vt 0.016300 0.177600
vt 0.059900 0.177600
vt 0.104000 0.177800
vt 0.221900 0.011200
vt 0.255700 0.039300
vt 0.260900 0.011400
vt 0.241500 0.054700
vt 0.222900 0.060600
vt 0.203600 0.056400
vt 0.185600 0.037900
vt 0.181400 0.010900
vt 0.185600 0.037900
vt 0.203600 0.056400
vt 0.185600 0.037900
vt 0.222900 0.060600
vt 0.203600 0.056400
vt 0.241500 0.054700
vt 0.222900 0.060600
vt 0.255700 0.039300
vt 0.241500 0.054700
vt 0.255700 0.039300
vt 0.080800 0.010500
vt 0.033800 0.029900
vt 0.044400 0.051500
vt 0.070200 0.061800
vt 0.113900 0.045900
vt 0.122100 0.026200
vt 0.030700 0.009200
vt 0.094800 0.060900
vt 0.033800 0.029900
vt 0.122500 0.011600
vt 0.044400 0.051500
vt 0.033800 0.029900
vt 0.070200 0.061800
vt 0.044400 0.051500
vt 0.094800 0.060900
vt 0.070200 0.061800
vt 0.113900 0.045900
vt 0.094800 0.060900
vt 0.122100 0.026200
vt 0.113900 0.045900
vt 0.122100 0.026200
vt 0.280500 0.122900
vt 0.280500 0.127900
vt 0.303800 0.132500
vt 0.303800 0.127500
vt 0.280400 0.133000
vt 0.303700 0.137600
vt 0.280600 0.112800
vt 0.280500 0.117900
vt 0.303800 0.122500
vt 0.303900 0.117400
vt 0.325800 0.132800
vt 0.325800 0.127800
vt 0.325700 0.137900
vt 0.325900 0.122800
vt 0.326000 0.117700
vt 0.348500 0.131500
vt 0.348500 0.126500
vt 0.348400 0.136600
vt 0.348500 0.121500
vt 0.348600 0.116400
vt 0.371100 0.133000
vt 0.371100 0.128000
vt 0.371000 0.138100
vt 0.371200 0.123000
vt 0.371300 0.117900
vt 0.393500 0.130200
vt 0.393700 0.125200
vt 0.393000 0.135300
vt 0.393600 0.120200
vt 0.393200 0.115200
vt 0.412800 0.125300
vt 0.412900 0.120300
vt 0.412700 0.130300
vt 0.412900 0.115400
vt 0.413000 0.110300
vt 0.257800 0.114400
vt 0.257800 0.119400
vt 0.257700 0.124400
vt 0.258000 0.104300
vt 0.257900 0.109300
vt 0.275800 0.275100
vt 0.313200 0.287200
vt 0.314900 0.236400
vt 0.275600 0.234500
vt 0.276000 0.313600
vt 0.316500 0.322700
vt 0.277200 0.354700
vt 0.316500 0.357900
vt 0.277100 0.402000
vt 0.315100 0.399300
vt 0.277000 0.454300
vt 0.317200 0.447700
vt 0.278300 0.510800
vt 0.314600 0.524900
vt 0.343000 0.283300
vt 0.355900 0.236900
vt 0.344000 0.318400
vt 0.342300 0.353900
vt 0.340800 0.396400
vt 0.345700 0.444900
vt 0.351200 0.515100
vt 0.379500 0.274900
vt 0.381300 0.236600
vt 0.377500 0.311200
vt 0.377900 0.353300
vt 0.378100 0.402400
vt 0.377700 0.454700
vt 0.377500 0.505400
vt 0.021500 0.359200
vt 0.021200 0.421400
vt 0.058200 0.419400
vt 0.069800 0.359800
vt 0.056200 0.465900
vt 0.023200 0.467400
vt 0.020100 0.523900
vt 0.078300 0.523700
vt 0.022600 0.305900
vt 0.061600 0.311300
vt 0.082500 0.201500
vt 0.023400 0.199300
vt 0.064500 0.246900
vt 0.189000 0.462600
vt 0.183900 0.524500
vt 0.236200 0.526900
vt 0.241200 0.472200
vt 0.239900 0.421700
vt 0.195400 0.416200
vt 0.181300 0.348100
vt 0.237100 0.352200
vt 0.084600 0.418100
vt 0.103100 0.356300
vt 0.123400 0.202700
vt 0.134600 0.248500
vt 0.120000 0.310200
vt 0.203200 0.279000
vt 0.194800 0.249800
vt 0.128700 0.280400
vt 0.243000 0.318000
vt 0.197700 0.308700
vt 0.250200 0.203500
vt 0.193400 0.204900
vt 0.244300 0.263300
vt 0.064500 0.281600
vt 0.153500 0.351000
vt 0.173600 0.416600
vt 0.160100 0.463200
vt 0.152200 0.524200
vt 0.117200 0.524000
vt 0.087600 0.464500
vt 0.160200 0.203900
vt 0.745900 0.757600
vt 0.774900 0.818000
vt 0.805100 0.759500
vt 0.776800 0.711600
vt 0.021500 0.359200
vt 0.069800 0.359800
vt 0.058200 0.419400
vt 0.021200 0.421400
vt 0.056200 0.465900
vt 0.078300 0.523700
vt 0.020100 0.523900
vt 0.023200 0.467400
vt 0.022600 0.305900
vt 0.061600 0.311300
vt 0.082500 0.201500
vt 0.064500 0.246900
vt 0.023400 0.199300
vt 0.189000 0.462600
vt 0.241200 0.472200
vt 0.236200 0.526900
vt 0.183900 0.524500
vt 0.239900 0.421700
vt 0.195400 0.416200
vt 0.181300 0.348100
vt 0.237100 0.352200
vt 0.084600 0.418100
vt 0.103100 0.356300
vt 0.123400 0.202700
vt 0.134600 0.248500
vt 0.120000 0.310200
vt 0.203200 0.279000
vt 0.128700 0.280400
vt 0.194800 0.249800
vt 0.243000 0.318000
vt 0.197700 0.308700
vt 0.250200 0.203500
vt 0.244300 0.263300
vt 0.193400 0.204900
vt 0.064500 0.281600
vt 0.153500 0.351000
vt 0.173600 0.416600
vt 0.160100 0.463200
vt 0.152200 0.524200
vt 0.087600 0.464500
vt 0.117200 0.524000
vt 0.160200 0.203900
vt 0.745900 0.757600
vt 0.776800 0.711600
vt 0.805100 0.759500
vt 0.774900 0.818000
vn -0.312921 0.205779 0.927219
vn -0.808556 0.198249 0.554017
vn -0.563107 -0.726969 0.392971
vn -0.251593 -0.774229 0.580750
vn -0.986152 0.146042 0.078586
vn -0.647001 -0.758206 0.080704
vn -0.195005 -0.572365 -0.796474
vn -0.440338 -0.593240 -0.673921
vn -0.398423 0.200644 -0.894987
vn -0.000906 0.165258 -0.986250
vn -0.006589 -0.776395 0.630212
vn 0.000672 0.193387 0.981122
vn -0.869214 0.187261 -0.457603
vn -0.668684 -0.692705 -0.270225
vn 0.250860 -0.775428 0.579465
vn 0.313850 0.206593 0.926724
vn 0.016292 -0.943698 -0.330408
vn 0.564920 -0.722323 0.398892
vn 0.805820 0.205141 0.555492
vn 0.652010 -0.752508 0.092816
vn 0.983102 0.162875 0.083561
vn 0.670126 -0.687759 -0.279140
vn 0.864487 0.204480 -0.459184
vn 0.425339 -0.598024 -0.679304
vn 0.401105 0.203108 -0.893231
vn 0.196464 -0.572076 -0.796323
vn -0.003258 0.740662 0.671870
vn -0.207811 0.762009 0.613316
vn -0.493319 0.805227 0.329008
vn -0.556301 0.830852 0.014612
vn -0.440561 0.837380 -0.323574
vn -0.189825 0.752262 -0.630926
vn 0.001386 0.724511 -0.689262
vn 0.185511 0.742186 -0.644007
vn 0.440300 0.834204 -0.332023
vn 0.565772 0.824086 0.028010
vn 0.501366 0.794154 0.343441
vn 0.206125 0.760746 0.615449
vn -0.006476 0.997292 -0.073254
vn -0.002434 -0.999266 0.038240
vn 0.014061 0.043813 0.998941
vn -0.666777 0.742629 0.062542
vn -0.744734 0.658957 0.105581
vn -0.352495 -0.375281 0.857270
vn -0.062137 0.008211 -0.998034
vn 0.367855 0.319020 -0.873447
vn 0.666508 -0.733781 0.131654
vn 0.614538 -0.759825 0.212155
vn -0.798585 0.597490 0.072576
vn -0.671411 -0.644762 0.365362
vn 0.691999 0.627775 -0.356422
vn 0.481629 -0.872991 0.076944
vn -0.782264 0.612697 -0.112538
vn -0.650977 -0.577572 -0.492585
vn 0.598109 0.553983 0.579110
vn 0.534406 -0.829755 -0.160989
vn -0.686301 0.710724 -0.154477
vn -0.325849 -0.279796 -0.903071
vn 0.273040 0.247581 0.929598
vn 0.621431 -0.766628 -0.161569
vn -0.612491 0.785397 -0.089473
vn 0.022633 0.069768 -0.997307
vn -0.042864 -0.015032 0.998968
vn 0.595993 -0.787808 -0.155405
vn -0.531495 0.838853 -0.117642
vn 0.206699 0.107688 -0.972460
vn -0.133972 -0.208406 0.968823
vn 0.591907 -0.761952 -0.262821
vn 0.139724 0.060484 0.988342
vn -0.576908 0.784205 0.228472
vn -0.091413 -0.106158 -0.990139
vn 0.633948 -0.725146 0.268835
vn -0.426265 0.882597 -0.198293
vn 0.213148 -0.637204 0.740635
vn 0.653195 0.033059 0.756468
vn -0.975929 0.044686 -0.213463
vn 0.546715 0.837003 0.023001
vn -0.565697 -0.600028 0.565644
vn 0.974153 -0.047845 0.220764
vn -0.907733 0.107219 0.405618
vn 0.423429 -0.882730 0.203707
vn -0.467932 0.777414 0.420318
vn -0.547631 -0.836567 -0.015996
vn 0.311437 0.740375 0.595694
vn 0.468369 -0.776219 -0.422035
vn 0.907555 -0.106893 -0.406101
vn -0.309862 -0.739328 -0.597813
vn -0.653057 -0.032879 -0.756594
vn -0.213393 0.635734 -0.741826
vn 0.567383 0.598427 -0.565652
vn -0.961782 -0.177813 -0.208226
vn -0.642546 -0.405800 -0.649970
vn -0.682111 -0.242272 -0.689948
vn -0.995826 0.050730 -0.075880
vn 0.163686 -0.748232 -0.642928
vn 0.059848 -0.816487 -0.574253
vn 0.406442 -0.900889 -0.152329
vn 0.702071 -0.711818 -0.020307
vn -0.904286 -0.027178 0.426062
vn -0.788279 0.175628 0.589721
vn 0.728744 -0.273503 0.627796
vn 0.631581 -0.186689 -0.752497
vn 0.981916 -0.061507 -0.179045
vn 0.960597 0.172808 -0.217692
vn 0.501274 0.127969 -0.855774
vn -0.495930 0.477176 -0.725504
vn -0.644089 0.319756 -0.694914
vn -0.705813 0.679680 -0.199659
vn -0.561793 0.807254 -0.180915
vn -0.620984 0.053091 -0.782023
vn -0.893525 0.431959 0.122574
vn 0.907634 -0.383388 0.170922
vn 0.688774 0.003608 0.724967
vn -0.448897 0.516275 0.729350
vn 0.032371 0.646044 0.762614
vn 0.835672 0.352470 0.421209
vn -0.086127 0.415741 0.905396
vn -0.169934 0.873327 0.456533
vn -0.237973 0.802195 0.547587
vn 0.888395 0.392972 0.237332
vn -0.176376 0.177982 0.968098
vn -0.907349 0.417333 -0.050511
vn -0.722602 -0.097975 -0.684285
vn 0.354999 -0.655968 -0.666095
vn 0.876590 -0.478932 -0.047065
vn 0.443150 -0.488286 -0.751795
vn -0.233954 0.290357 0.927879
vn -0.233954 0.290357 0.927879
vn -0.233954 0.290357 0.927879
vn -0.233954 0.290357 0.927879
vn 0.961782 -0.177813 -0.208226
vn 0.995826 0.050730 -0.075880
vn 0.682112 -0.242272 -0.689948
vn 0.642546 -0.405800 -0.649970
vn -0.163686 -0.748232 -0.642927
vn -0.702071 -0.711818 -0.020307
vn -0.406442 -0.900889 -0.152329
vn -0.059848 -0.816488 -0.574253
vn 0.904286 -0.027177 0.426062
vn 0.788279 0.175628 0.589721
vn -0.728744 -0.273503 0.627796
vn -0.631581 -0.186689 -0.752497
vn -0.501274 0.127968 -0.855774
vn -0.960597 0.172808 -0.217693
vn -0.981916 -0.061508 -0.179045
vn 0.495931 0.477176 -0.725504
vn 0.644089 0.319756 -0.694914
vn 0.705813 0.679680 -0.199659
vn 0.561793 0.807254 -0.180914
vn 0.620984 0.053091 -0.782023
vn 0.893525 0.431959 0.122574
vn -0.907634 -0.383388 0.170921
vn -0.688774 0.003608 0.724967
vn 0.448897 0.516275 0.729350
vn -0.032371 0.646044 0.762614
vn 0.086127 0.415741 0.905396
vn -0.835672 0.352469 0.421209
vn 0.169934 0.873327 0.456533
vn 0.237973 0.802196 0.547587
vn -0.888395 0.392972 0.237332
vn 0.176376 0.177982 0.968098
vn 0.907349 0.417333 -0.050510
vn 0.722603 -0.097975 -0.684285
vn -0.354998 -0.655968 -0.666095
vn -0.876589 -0.478933 -0.047065
vn -0.443150 -0.488285 -0.751795
vn 0.233954 0.290356 0.927879
vn 0.233954 0.290356 0.927879
vn 0.233954 0.290356 0.927879
vn 0.233954 0.290356 0.927879
s 1
g polySurface69
usemtl Material__53
f 1/1/1 2/2/2 3/3/3 4/4/4
f 2/2/2 5/5/5 6/6/6 3/3/3
f 7/7/7 8/8/8 9/9/9 10/10/10
f 4/4/4 11/11/11 12/12/12 1/1/1
f 13/13/13 9/9/9 8/8/8 14/14/14
f 14/14/14 6/6/6 5/5/5 13/13/13
f 15/15/15 16/16/16 12/12/12 11/11/11
f 17/17/17 7/7/7 10/10/10
f 16/16/16 15/15/15 18/18/18 19/19/19
f 19/19/19 18/18/18 20/20/20 21/21/21
f 22/22/22 23/23/23 21/24/21 20/25/20
f 23/23/23 22/22/22 24/26/24 25/27/25
f 26/28/26 10/10/10 25/27/25 24/26/24
f 26/28/26 17/17/17 10/10/10
f 1/1/1 12/12/12 27/29/27 28/30/28
f 1/1/1 28/30/28 29/31/29 2/2/2
f 30/32/30 5/5/5 2/2/2 29/31/29
f 31/33/31 13/13/13 5/5/5 30/32/30
f 13/13/13 31/33/31 32/34/32 9/9/9
f 33/35/33 10/10/10 9/9/9 32/34/32
f 33/35/33 34/36/34 25/27/25 10/10/10
f 25/27/25 34/36/34 35/37/35 23/23/23
f 35/37/35 36/38/36 21/24/21 23/23/23
f 36/39/36 37/40/37 19/19/19 21/21/21
f 19/19/19 37/40/37 38/41/38 16/16/16
f 16/16/16 38/41/38 27/29/27 12/12/12
f 39/42/39 28/43/28 27/44/27
f 39/42/39 29/45/29 28/43/28
f 39/42/39 30/46/30 29/45/29
f 39/42/39 31/47/31 30/46/30
f 39/42/39 32/48/32 31/47/31
f 39/42/39 33/49/33 32/48/32
f 39/42/39 34/50/34 33/49/33
f 39/42/39 35/51/35 34/52/34
f 39/42/39 36/53/36 35/54/35
f 39/42/39 37/55/37 36/56/36
f 39/42/39 38/57/38 37/58/37
f 39/42/39 27/44/27 38/59/38
f 40/60/40 4/61/4 3/62/3
f 40/60/40 3/62/3 6/63/6
f 40/60/40 8/64/8 7/65/7
f 40/60/40 11/66/11 4/61/4
f 40/60/40 14/67/14 8/64/8
f 40/60/40 6/63/6 14/67/14
f 40/60/40 15/68/15 11/66/11
f 40/60/40 7/65/7 17/69/17
f 40/60/40 18/70/18 15/71/15
f 40/60/40 20/72/20 18/73/18
f 40/60/40 22/74/22 20/75/20
f 40/60/40 24/76/24 22/77/22
f 40/60/40 26/78/26 24/79/24
f 40/60/40 17/69/17 26/80/26
s 3
f 41/81/41 42/82/42 43/83/43 44/84/44
f 42/82/42 45/85/45 46/86/46 43/83/43
f 45/87/45 47/88/47 48/89/48 46/90/46
f 47/88/47 41/81/41 44/84/44 48/89/48
f 44/84/44 43/83/43 49/91/49 50/92/50
f 43/83/43 46/86/46 51/93/51 49/91/49
f 46/90/46 48/89/48 52/94/52 51/95/51
f 48/89/48 44/84/44 50/92/50 52/94/52
f 50/92/50 49/91/49 53/96/53 54/97/54
f 49/91/49 51/93/51 55/98/55 53/96/53
f 51/95/51 52/94/52 56/99/56 55/100/55
f 52/94/52 50/92/50 54/97/54 56/99/56
f 54/97/54 53/96/53 57/101/57 58/102/58
f 53/96/53 55/98/55 59/103/59 57/101/57
f 55/100/55 56/99/56 60/104/60 59/105/59
f 56/99/56 54/97/54 58/102/58 60/104/60
f 58/102/58 57/101/57 61/106/61 62/107/62
f 57/101/57 59/103/59 63/108/63 61/106/61
f 59/105/59 60/104/60 64/109/64 63/110/63
f 60/104/60 58/102/58 62/107/62 64/109/64
f 65/111/65 66/112/66 62/107/62 61/106/61
f 67/113/67 65/111/65 61/106/61 63/108/63
f 68/114/68 67/115/67 63/110/63 64/109/64
f 66/112/66 68/114/68 64/109/64 62/107/62
f 69/116/69 70/117/70 42/82/42 41/81/41
f 70/117/70 71/118/71 45/85/45 42/82/42
f 71/119/71 72/120/72 47/88/47 45/87/45
f 72/120/72 69/116/69 41/81/41 47/88/47
s 4
f 73/121/73 74/122/74 75/123/75 76/124/76
f 77/125/77 78/126/78 74/122/74 73/121/73
f 79/127/79 80/128/80 78/126/78 77/125/77
f 81/129/81 82/130/82 80/128/80 79/127/79
f 83/131/83 84/132/84 82/130/82 81/129/81
f 76/133/76 75/134/75 84/132/84 83/131/83
f 74/122/74 85/135/85 86/136/86 75/123/75
f 78/126/78 87/137/87 85/135/85 74/122/74
f 80/128/80 88/138/88 87/137/87 78/126/78
f 82/130/82 89/139/89 88/138/88 80/128/80
f 84/132/84 90/140/90 89/139/89 82/130/82
f 75/134/75 86/141/86 90/140/90 84/132/84
f 85/135/85 73/142/73 76/143/76 86/136/86
f 87/137/87 77/144/77 73/142/73 85/135/85
f 88/138/88 79/145/79 77/144/77 87/137/87
f 89/139/89 81/146/81 79/145/79 88/138/88
f 90/140/90 83/147/83 81/146/81 89/139/89
f 86/141/86 76/148/76 83/147/83 90/140/90
s 5
f 91/149/91 92/150/92 93/151/93 94/152/94
f 95/153/95 96/154/96 97/155/97 98/156/98
f 99/157/99 91/149/91 94/152/94 100/158/100
f 98/159/98 97/160/97 101/161/101
f 95/153/95 93/151/93 92/150/92 96/154/96
f 102/162/102 103/163/103 104/164/104 105/165/105
f 106/166/106 107/167/107 102/162/102 105/165/105
f 108/168/108 107/167/107 106/166/106 109/169/109
f 111/170/110 110/171/111 94/152/94 93/151/93
f 112/172/112 98/159/98 101/161/101 113/173/113
f 100/158/100 94/152/94 110/171/111 114/174/114
f 115/175/115 116/176/116 113/173/113 117/177/117
f 118/178/118 119/179/119 108/168/108 109/169/109
f 119/179/119 118/178/118 115/175/115
f 104/180/104 103/181/103 116/176/116 120/182/120
f 120/182/120 116/176/116 115/175/115
f 119/179/119 115/175/115 117/177/117 114/174/114
f 99/157/99 100/158/100 121/183/121
f 108/168/108 119/179/119 114/174/114 122/184/122
f 123/185/123 107/167/107 108/168/108 122/184/122
f 102/162/102 107/167/107 123/185/123 124/186/124
f 103/163/103 102/162/102 124/186/124 125/187/125
f 98/156/98 112/188/112 126/189/126 95/153/95
f 116/176/116 103/181/103 125/190/125 113/173/113
f 121/183/121 100/158/100 114/174/114 117/177/117
f 113/173/113 101/161/101 121/183/121 117/177/117
f 126/189/126 111/170/110 93/151/93 95/153/95
s off
f 127/191/127 128/192/128 129/193/129 130/194/130
s 8
f 131/195/131 134/196/132 133/197/133 132/198/134
f 135/199/135 138/200/136 137/201/137 136/202/138
f 139/203/139 140/204/140 134/196/132 131/195/131
f 138/205/136 141/206/141 137/207/137
f 135/199/135 136/202/138 132/198/134 133/197/133
f 142/208/142 145/209/143 144/210/144 143/211/145
f 146/212/146 145/209/143 142/208/142 147/213/147
f 148/214/148 149/215/149 146/212/146 147/213/147
f 151/216/150 133/197/133 134/196/132 150/217/151
f 152/218/152 153/219/153 141/206/141 138/205/136
f 140/204/140 154/220/154 150/217/151 134/196/132
f 155/221/155 157/222/156 153/219/153 156/223/157
f 158/224/158 149/215/149 148/214/148 159/225/159
f 159/225/159 155/221/155 158/224/158
f 144/226/144 160/227/160 156/223/157 143/228/145
f 160/227/160 155/221/155 156/223/157
f 159/225/159 154/220/154 157/222/156 155/221/155
f 139/203/139 161/229/161 140/204/140
f 148/214/148 162/230/162 154/220/154 159/225/159
f 163/231/163 162/230/162 148/214/148 147/213/147
f 142/208/142 164/232/164 163/231/163 147/213/147
f 143/211/145 165/233/165 164/232/164 142/208/142
f 138/200/136 135/199/135 166/234/166 152/235/152
f 156/223/157 153/219/153 165/236/165 143/228/145
f 161/229/161 157/222/156 154/220/154 140/204/140
f 153/219/153 157/222/156 161/229/161 141/206/141
f 166/234/166 135/199/135 133/197/133 151/216/150
s off
f 167/237/167 170/238/168 169/239/169 168/240/170
