# This file uses centimeters as units for non-parametric coordinates.

mtllib mouth.mtl
g default
v 0.000000 3.194109 1.381076
v -0.171530 3.407741 1.369944
v -0.163041 3.193990 1.353949
v 0.000000 3.409508 1.403374
v 0.171529 3.407741 1.369944
v 0.000000 3.493146 1.403032
v 0.175576 3.484957 1.361177
v 0.060697 3.585293 1.383467
v 0.170356 3.567519 1.348193
v 0.170235 3.661045 1.302822
v 0.293881 3.555217 1.298934
v 0.348040 3.631980 1.227955
v 0.415521 3.552006 1.248464
v -0.348040 3.631980 1.227955
v -0.170236 3.661045 1.302822
v -0.118194 3.721916 1.272773
v -0.293881 3.555217 1.298934
v -0.415521 3.552006 1.248464
v -0.317141 3.480801 1.320854
v -0.406758 3.404603 1.280761
v -0.379956 3.192200 1.286469
v -0.175576 3.484957 1.361177
v -0.060698 3.585293 1.383467
v -0.170356 3.567519 1.348193
v 0.406757 3.404603 1.280761
v 0.379956 3.192200 1.286469
v 0.317141 3.480801 1.320854
v 0.000000 3.662302 1.360882
v 0.163041 3.193990 1.353949
v 0.118193 3.721916 1.272773
vt 0.124969 0.767822
vt 0.071747 0.852936
vt 0.071533 0.767822
vt 0.124969 0.854065
vt 0.178223 0.852936
vt 0.124969 0.892670
vt 0.179779 0.890076
vt 0.142334 0.923737
vt 0.179321 0.917114
vt 0.178375 0.963440
vt 0.221497 0.912842
vt 0.241241 0.956451
vt 0.264282 0.908325
vt 0.008728 0.956451
vt 0.071564 0.963440
vt 0.075623 0.994324
vt 0.028473 0.912842
vt -0.014313 0.908325
vt 0.028473 0.882507
vt -0.010712 0.852142
vt -0.003479 0.777161
vt 0.070190 0.890076
vt 0.107635 0.923737
vt 0.070648 0.917114
vt 0.260681 0.852142
vt 0.253418 0.777161
vt 0.221466 0.882507
vt 0.124969 0.957886
vt 0.178436 0.767822
vt 0.174347 0.994324
vn 0.000000 -0.215034 0.976607
vn -0.249021 -0.015993 0.968366
vn -0.233340 -0.198231 0.951975
vn 0.000000 -0.215034 0.976607
vn 0.000000 -0.049512 0.998774
vn -0.249021 -0.015993 0.968366
vn 0.249021 -0.015993 0.968366
vn 0.000000 -0.049512 0.998774
vn 0.000000 -0.215034 0.976607
vn 0.249021 -0.015993 0.968366
vn 0.000000 0.075289 0.997162
vn 0.000000 -0.049512 0.998774
vn 0.269468 0.115596 0.956046
vn 0.000000 0.075289 0.997162
vn 0.249021 -0.015993 0.968366
vn 0.269468 0.115596 0.956046
vn 0.202390 0.271209 0.941002
vn 0.000000 0.075289 0.997162
vn 0.340575 0.305998 0.889030
vn 0.202390 0.271209 0.941002
vn 0.269468 0.115596 0.956046
vn 0.340575 0.305998 0.889030
vn 0.349428 0.508043 0.787269
vn 0.202390 0.271209 0.941002
vn 0.373896 0.417147 0.828366
vn 0.349428 0.508043 0.787269
vn 0.340575 0.305998 0.889030
vn 0.373896 0.417147 0.828366
vn 0.417348 0.638645 0.646493
vn 0.349428 0.508043 0.787269
vn 0.502332 0.408816 0.761926
vn 0.417348 0.638645 0.646493
vn 0.373896 0.417147 0.828366
vn -0.417348 0.638645 0.646493
vn -0.349428 0.508043 0.787269
vn -0.329893 0.821967 0.464263
vn -0.417348 0.638645 0.646493
vn -0.373896 0.417147 0.828366
vn -0.349428 0.508043 0.787269
vn -0.502332 0.408816 0.761926
vn -0.373896 0.417147 0.828366
vn -0.417348 0.638645 0.646493
vn -0.502332 0.408816 0.761926
vn -0.364873 0.181894 0.913117
vn -0.373896 0.417147 0.828366
vn -0.478819 0.044591 0.876780
vn -0.364873 0.181894 0.913117
vn -0.502332 0.408816 0.761926
vn -0.478819 0.044591 0.876780
vn -0.249021 -0.015993 0.968366
vn -0.364873 0.181894 0.913117
vn -0.416369 -0.168456 0.893454
vn -0.249021 -0.015993 0.968366
vn -0.478819 0.044591 0.876780
vn -0.416369 -0.168456 0.893454
vn -0.233340 -0.198231 0.951975
vn -0.249021 -0.015993 0.968366
vn 0.000000 0.075289 0.997162
vn -0.249021 -0.015993 0.968366
vn 0.000000 -0.049512 0.998774
vn 0.000000 0.075289 0.997162
vn -0.269468 0.115596 0.956046
vn -0.249021 -0.015993 0.968366
vn -0.202390 0.271209 0.941002
vn -0.269468 0.115596 0.956046
vn 0.000000 0.075289 0.997162
vn -0.202390 0.271209 0.941002
vn -0.340575 0.305998 0.889030
vn -0.269468 0.115596 0.956046
vn -0.349428 0.508043 0.787269
vn -0.340575 0.305998 0.889030
vn -0.202390 0.271209 0.941002
vn -0.349428 0.508043 0.787269
vn -0.373896 0.417147 0.828366
vn -0.340575 0.305998 0.889030
vn 0.478819 0.044591 0.876780
vn 0.249021 -0.015993 0.968366
vn 0.416369 -0.168456 0.893454
vn 0.478819 0.044591 0.876780
vn 0.364873 0.181894 0.913117
vn 0.249021 -0.015993 0.968366
vn 0.502332 0.408816 0.761926
vn 0.364873 0.181894 0.913117
vn 0.478819 0.044591 0.876780
vn 0.502332 0.408816 0.761926
vn 0.373896 0.417147 0.828366
vn 0.364873 0.181894 0.913117
vn -0.202390 0.271209 0.941002
vn 0.000000 0.463454 0.886121
vn -0.349428 0.508043 0.787269
vn -0.202390 0.271209 0.941002
vn 0.202390 0.271209 0.941002
vn 0.000000 0.463454 0.886121
vn 0.000000 0.075289 0.997162
vn 0.202390 0.271209 0.941002
vn -0.202390 0.271209 0.941002
vn -0.269468 0.115596 0.956046
vn -0.364873 0.181894 0.913117
vn -0.249021 -0.015993 0.968366
vn -0.269468 0.115596 0.956046
vn -0.340575 0.305998 0.889030
vn -0.364873 0.181894 0.913117
vn 0.233340 -0.198231 0.951975
vn 0.249021 -0.015993 0.968366
vn 0.000000 -0.215034 0.976607
vn 0.233340 -0.198231 0.951975
vn 0.416369 -0.168456 0.893454
vn 0.249021 -0.015993 0.968366
vn 0.340575 0.305998 0.889030
vn 0.364873 0.181894 0.913117
vn 0.373896 0.417147 0.828366
vn 0.340575 0.305998 0.889030
vn 0.269468 0.115596 0.956046
vn 0.364873 0.181894 0.913117
vn -0.364873 0.181894 0.913117
vn -0.340575 0.305998 0.889030
vn -0.373896 0.417147 0.828366
vn 0.000000 0.463454 0.886121
vn 0.202390 0.271209 0.941002
vn 0.349428 0.508043 0.787269
vn 0.417348 0.638645 0.646493
vn 0.329893 0.821967 0.464263
vn 0.349428 0.508043 0.787269
vn 0.249021 -0.015993 0.968366
vn 0.364873 0.181894 0.913117
vn 0.269468 0.115596 0.956046
s off
g Pikachu2:polygon0
usemtl Pikachu2:mat4
f 1/1/1 2/2/2 3/3/3
f 1/1/4 4/4/5 2/2/6
f 5/5/7 4/4/8 1/1/9
f 5/5/10 6/6/11 4/4/12
f 7/7/13 6/6/14 5/5/15
f 7/7/16 8/8/17 6/6/18
f 9/9/19 8/8/20 7/7/21
f 9/9/22 10/10/23 8/8/24
f 11/11/25 10/10/26 9/9/27
f 11/11/28 12/12/29 10/10/30
f 13/13/31 12/12/32 11/11/33
f 14/14/34 15/15/35 16/16/36
f 14/14/37 17/17/38 15/15/39
f 18/18/40 17/17/41 14/14/42
f 18/18/43 19/19/44 17/17/45
f 20/20/46 19/19/47 18/18/48
f 20/20/49 2/2/50 19/19/51
f 21/21/52 2/2/53 20/20/54
f 21/21/55 3/3/56 2/2/57
f 6/6/58 2/2/59 4/4/60
f 6/6/61 22/22/62 2/2/63
f 23/23/64 22/22/65 6/6/66
f 23/23/67 24/24/68 22/22/69
f 15/15/70 24/24/71 23/23/72
f 15/15/73 17/17/74 24/24/75
f 25/25/76 5/5/77 26/26/78
f 25/25/79 27/27/80 5/5/81
f 13/13/82 27/27/83 25/25/84
f 13/13/85 11/11/86 27/27/87
f 23/23/88 28/28/89 15/15/90
f 23/23/91 8/8/92 28/28/93
f 6/6/94 8/8/95 23/23/96
f 22/22/97 19/19/98 2/2/99
f 22/22/100 24/24/101 19/19/102
f 29/29/103 5/5/104 1/1/105
f 29/29/106 26/26/107 5/5/108
f 9/9/109 27/27/110 11/11/111
f 9/9/112 7/7/113 27/27/114
f 19/19/115 24/24/116 17/17/117
f 28/28/118 8/8/119 10/10/120
f 12/12/121 30/30/122 10/10/123
f 5/5/124 27/27/125 7/7/126
